<svg width="16" height="16" fill="none" xmlns="http://www.w3.org/2000/svg"><path fill-rule="evenodd" clip-rule="evenodd" d="M16 8c0 .489-.387.88-.87.88-3.435-.02-6.23 2.768-6.26 6.24 0 .489-.386.88-.87.88a.872.872 0 01-.87-.88C7.1 11.648 4.304 8.86.87 8.88A.872.872 0 010 8c0-.489.387-.88.87-.88C4.306 7.14 7.1 4.352 7.13.88 7.13.391 7.515 0 8 0s.87.391.87.88c.03 3.462 2.825 6.26 6.26 6.24.483 0 .87.391.87.88zM3.484 8a7.604 7.604 0 004.517-4.548A7.616 7.616 0 0012.518 8 7.604 7.604 0 008 12.546 7.604 7.604 0 003.484 8z" fill="#FFA800"/></svg>