<svg width="1366" height="376" fill="none" xmlns="http://www.w3.org/2000/svg"><path fill-rule="evenodd" clip-rule="evenodd" d="M0 51.664V376h1366V17.45c-3.08-.338-6.39-.675-9.7 0-5.44 1.158-11.08 1.822-16.75 2.49-8.38.986-16.84 1.982-24.89 4.6-6.15 1.858-13.72 1.014-20.58-.337-3.08-.675-6.39-1.013-9.7-.675-4.21.546-8.11-.674-11.94-1.875-.91-.284-1.82-.568-2.73-.826-6.38-1.689-12.54-1.689-19.16-1.182-2.68.112-5.36.075-8.04.037-1.34-.018-2.68-.037-4.03-.037-3.31 0-6.38.169-8.28 3.038-1.42 2.195-4.49 1.858-7.33 1.351l-.73-.146c-3.99-.793-7.81-1.552-12.04-1.711-10.18-.675-18.69 2.026-27.21 5.234-2.84 1.181-5.92 2.363-9.23 1.181-4.57-1.748-9.15-1.163-13.72-.577-2.05.262-4.1.525-6.15.577-7.77.163-15.32.956-23.07 1.77l-.82.087c-3.55.338-7.58-.506-10.65-1.52-6.2-2.063-12.58-1.552-18.82-1.052-.91.072-1.81.145-2.71.209-11.59.844-22.71-.169-32.88-3.883-1.97-.702-4-.811-6.03-.92-1.88-.1-3.75-.2-5.57-.768-8.75-2.701-17.5-4.896-26.49-6.922-3.04-.774-6.07.013-9.11.8l-.83.213c-1.92.506-3.77 1.15-5.62 1.793-4.32 1.5-8.64 3.001-13.778 2.765a360.81 360.81 0 01-6.979-.338c-2.307-.126-4.613-.253-6.979-.337-.368-.026-.736-.06-1.102-.095-1.994-.187-3.961-.37-5.759.77-.473.169-1.419.338-1.893.169-5.35-1.591-11.074-1.716-16.761-1.84-3.365-.074-6.718-.147-9.972-.524-.307 0-.639-.017-.98-.036-.709-.038-1.456-.078-2.095.036-12.066 2.87-22.948 1.013-32.412-4.558-2.333-1.315-5.05-2.129-7.752-2.939-2.501-.75-4.991-1.496-7.152-2.632-.091-.032-.191-.071-.295-.111-.434-.169-.933-.363-1.124-.227-5.595 1.854-9.839-.025-14.016-1.875a85.61 85.61 0 00-2.308-.995c-8.754-3.376-17.98-4.389-26.497-1.35-5.441 1.857-9.227 1.688-13.721-.169-4.297-1.725-9.052-2.09-13.787-2.454-3.608-.277-7.205-.553-10.581-1.429-2.448-.672-4.447.26-6.234 1.095-.458.214-.902.421-1.336.593-6.861 3.208-14.668 4.39-22.712 4.727-2.602 0-4.731.676-6.388 2.026-4.495 3.377-9.699 4.39-15.377 2.533-.365-.105-.729-.21-1.091-.317-4.337-1.266-8.519-2.488-13.104.316-1.32.943-3.46.278-5.085-.227l-.356-.11c-6.388-1.688-13.012-2.364-19.636-1.857-2.566.203-4.96.897-7.39 1.601-1.602.465-3.22.933-4.912 1.269-3.312.675-6.151.675-9.7-.338-13.485-4.22-27.443-7.428-42.347-7.766-4.022-.168-7.571-.506-11.356-1.52-5.019-1.491-9.854-.345-14.503.757-.61.145-1.217.289-1.821.426-.552.112-1.077.3-1.603.487-1.052.376-2.103.75-3.365.526-6.328-.977-12.409.076-18.422 1.117-2.304.4-4.598.797-6.892 1.077-1.419.17-2.602.17-4.022.17-3.548-.17-6.86.168-10.409 1.35-6.177 2.074-12.773 3.153-19.359 4.23-1.99.325-3.979.65-5.955 1.003-3.121.47-5.444-.039-7.839-.563-1.055-.23-2.123-.464-3.28-.619-5.004-.57-10.009.187-15.014.946-.909.137-1.819.275-2.729.405-.699.125-1.397.254-2.096.384-4.982.925-9.987 1.855-15.174.967-1.183-.17-2.603-.17-3.549.168-9.463 3.883-19.873 4.39-30.519 4.728-1.519 0-2.75.741-4.063 1.533-1.344.81-2.775 1.672-4.69 1.843-.584 0-1.168.114-1.735.225-.812.16-1.59.311-2.287.113-3.47-.973-7.07-.927-10.664-.88-3.266.042-6.527.084-9.681-.64-7.102-1.576-14.309-1.35-21.481-1.125-3.579.113-7.15.225-10.694.112-.552-.056-1.078-.056-1.586-.056-1.016 0-1.963 0-2.909-.45-3.785-1.689-7.334-2.364-10.41.844-.946 1.013-3.075 1.52-4.731.844-3.549-1.182-7.097-.844-10.646-.506-.228 0-.481.035-.743.07-.551.077-1.142.159-1.623-.07-4.613-2.415-10.027-2.832-15.395-3.245-2.89-.223-5.767-.444-8.499-.976-8.99-1.857-17.98-1.857-27.207-1.182-2.488.162-4.976-.179-7.49-.522-2.745-.376-5.52-.755-8.36-.49-3.904.337-7.867.548-11.829.759-3.963.211-7.926.422-11.829.76-3.312.169-5.915.169-8.99-1.013-4.258-1.857-8.99-2.701-13.958-2.026-2.129.337-4.022.675-5.441 2.026-3.076 2.7-7.098 3.545-11.593 3.376-2.72-.084-5.441-.253-8.162-.422-2.72-.169-5.441-.338-8.162-.422-2.129 0-4.021-.338-5.678-1.35-1.915-1.216-4.214-1.064-6.724-.899-.28.019-.562.037-.846.054-7.807.507-14.668 1.35-18.926 6.922-.71 1.013-4.495 1.52-6.624 1.35-6.048-.634-11.962-.123-17.843.384-1.941.168-3.878.335-5.815.46-1.555.097-3.109.139-4.664.18-3.887.103-7.773.207-11.66 1.171-1.893.507-4.495.507-6.151-.168-7.88-3.347-15.759-1.917-23.521-.508-2.026.368-4.044.735-6.051 1.014-7.334 1.013-13.958 1.013-20.346-1.52-4.258-1.688-8.28-2.363-13.012-1.519l-1.345.234c-8.35 1.454-17.082 2.974-25.388 2.974-5.303 0-9.733 1.168-14.18 2.341-2.099.554-4.202 1.109-6.402 1.542-6.151 1.182-10.883-.338-15.378-2.701-2.602-1.351-5.205-2.026-8.517-2.364-4.287-.353-8.345-1.28-12.414-2.21-1.767-.404-3.537-.808-5.329-1.166v29.15z" fill="#2F4858"/></svg>