<svg width="1366" height="120" fill="none" xmlns="http://www.w3.org/2000/svg"><path fill-rule="evenodd" clip-rule="evenodd" d="M1366 0H0v109.589c3.076.199 6.388.397 9.7 0 5.441-.68 11.076-1.069 16.747-1.462 8.383-.579 16.847-1.164 24.89-2.702 6.151-1.091 13.722-.595 20.583.198 3.075.397 6.387.595 9.7.397 4.207-.321 8.105.395 11.944 1.101.91.167 1.817.333 2.723.485 6.388.992 12.539.992 19.163.694 2.681-.066 5.362-.044 8.044-.022 1.34.011 2.681.022 4.021.022 3.312 0 6.388-.099 8.281-1.784 1.419-1.289 4.495-1.091 7.334-.794l.733.086c3.99.466 7.806.912 12.042 1.005 10.173.397 18.689-1.19 27.206-3.074 2.839-.694 5.915-1.388 9.227-.694 4.574 1.027 9.147.683 13.721.339 2.051-.154 4.101-.308 6.151-.339 7.768-.095 15.315-.561 23.068-1.039l.827-.051c3.548-.199 7.57.297 10.646.892 6.197 1.212 12.575.912 18.818.619.907-.043 1.81-.086 2.71-.123 11.592-.496 22.712.099 32.884 2.28 1.968.413 4 .477 6.029.541 1.874.059 3.746.118 5.564.451 8.753 1.586 17.507 2.875 26.496 4.065 3.037.454 6.073-.008 9.109-.47l.828-.125c1.916-.297 3.768-.675 5.621-1.053 4.322-.881 8.644-1.763 13.778-1.624 2.366.05 4.673.124 6.979.198 2.307.075 4.613.149 6.979.199.368.015.736.035 1.102.055 1.994.11 3.961.218 5.759-.452.473-.099 1.419-.198 1.893-.099 5.35.934 11.074 1.008 16.761 1.081 3.365.043 6.718.086 9.972.307.307 0 .639.01.98.021.709.022 1.456.046 2.095-.021 12.066-1.686 22.948-.595 32.412 2.677 2.333.772 5.05 1.25 7.752 1.726 2.501.44 4.991.878 7.152 1.546.091.019.191.042.295.065.434.099.933.213 1.124.133 5.595-1.088 9.839.015 14.016 1.101.769.2 1.536.4 2.308.585 8.754 1.983 17.98 2.578 26.497.793 5.441-1.091 9.227-.992 13.721.099 4.297 1.013 9.052 1.228 13.787 1.441 3.608.163 7.205.325 10.581.84 2.448.394 4.447-.154 6.234-.644.458-.125.902-.247 1.336-.348 6.861-1.884 14.668-2.578 22.712-2.776 2.602 0 4.732-.397 6.388-1.19 4.495-1.983 9.699-2.578 15.377-1.487.365.061.729.123 1.091.186 4.337.743 8.519 1.461 13.104-.186 1.32-.554 3.46-.163 5.085.133l.356.065a99.402 99.402 0 0019.636 1.091c2.566-.12 4.96-.527 7.39-.941 1.602-.272 3.22-.548 4.912-.745 3.312-.396 6.151-.396 9.7.198 13.485 2.479 27.443 4.363 42.347 4.561 4.022.1 7.571.298 11.356.893 5.019.876 9.854.203 14.503-.444.61-.085 1.217-.17 1.821-.25.552-.066 1.077-.177 1.603-.287 1.052-.22 2.103-.44 3.365-.308 6.328.573 12.409-.045 18.422-.657 2.304-.234 4.598-.467 6.892-.632 1.419-.099 2.602-.099 4.021-.099 3.549.099 6.861-.099 10.41-.794 6.177-1.218 12.773-1.851 19.359-2.484a689.95 689.95 0 005.955-.589c3.121-.276 5.444.023 7.839.33 1.055.136 2.123.273 3.28.364 5.004.335 10.009-.11 15.013-.555.91-.081 1.82-.162 2.73-.238.699-.073 1.397-.15 2.096-.226 4.982-.543 9.987-1.089 15.174-.568 1.183.1 2.603.1 3.549-.099 9.463-2.28 19.873-2.578 30.519-2.776 1.519 0 2.75-.436 4.063-.9 1.344-.476 2.775-.983 4.69-1.083.584 0 1.168-.067 1.735-.132.812-.093 1.59-.183 2.287-.066 3.47.571 7.07.544 10.664.517 3.266-.025 6.527-.05 9.681.375 7.102.926 14.309.793 21.481.661 3.579-.066 7.15-.132 10.694-.066.552.033 1.078.033 1.586.033 1.016 0 1.963 0 2.909.265 3.785.991 7.334 1.388 10.41-.496.946-.595 3.075-.893 4.731-.496 3.549.694 7.097.496 10.646.297.228 0 .481-.02.743-.041.551-.045 1.141-.093 1.623.041 4.613 1.418 10.027 1.663 15.395 1.906 2.894.131 5.764.261 8.504.573 8.99 1.091 17.98 1.091 27.2.694 2.49-.095 4.98.105 7.49.307 2.75.221 5.52.443 8.36.288 3.91-.198 7.87-.322 11.83-.446s7.93-.248 11.83-.446c3.31-.099 5.91-.099 8.99.595a42.711 42.711 0 0013.96 1.19c2.13-.199 4.02-.397 5.44-1.19 3.07-1.587 7.1-2.082 11.59-1.983 2.72.049 5.44.148 8.16.248 2.72.099 5.44.198 8.17.247 2.12 0 4.02.199 5.67.794 1.92.713 4.22.624 6.73.527l.84-.032c7.81-.297 14.67-.793 18.93-4.065.71-.595 4.5-.892 6.62-.793 6.05.373 11.97.073 17.85-.225 1.94-.099 3.88-.197 5.81-.271 1.56-.056 3.11-.081 4.67-.105 3.88-.061 7.77-.121 11.66-.688 1.89-.297 4.49-.297 6.15.099 7.88 1.966 15.76 1.126 23.52.298 2.02-.216 4.04-.431 6.05-.595 7.33-.595 13.96-.595 20.34.892 4.26.992 8.29 1.388 13.02.893l1.34-.138c8.35-.854 17.08-1.746 25.39-1.746 5.3 0 9.73-.687 14.18-1.375 2.1-.326 4.2-.651 6.4-.906 6.15-.694 10.88.199 15.38 1.587 2.6.793 5.2 1.189 8.52 1.388 4.28.207 8.34.752 12.41 1.298 1.77.237 3.54.474 5.33.685V0z" fill="#fff"/></svg>