<svg width="1366" height="35" fill="none" xmlns="http://www.w3.org/2000/svg"><path d="M1366 0v21.615c-5.91-.694-11.59-1.686-17.74-1.983-3.32-.199-5.92-.595-8.52-1.388-4.5-1.389-9.23-2.28-15.38-1.587-6.86.793-12.77 2.28-20.58 2.28-8.75 0-17.98.992-26.73 1.884-4.73.496-8.76.1-13.02-.892-6.38-1.487-13.01-1.487-20.34-.892-9.7.793-19.64 2.776-29.57.297-1.66-.396-4.26-.396-6.15-.099-5.45.793-10.89.595-16.33.793-7.8.298-15.61.992-23.66.496-2.12-.1-5.91.198-6.62.793-4.26 3.272-11.12 3.768-18.93 4.065-2.84.1-5.44.298-7.57-.495-1.65-.595-3.55-.794-5.67-.794-5.45-.099-10.89-.396-16.33-.495-4.49-.1-8.52.396-11.59 1.983-1.42.793-3.31.991-5.44 1.19-4.97.396-9.7-.1-13.96-1.19-3.08-.694-5.68-.694-8.99-.595-7.81.396-15.85.496-23.66.892-5.44.298-10.64-.793-15.85-.595-9.22.397-18.21.397-27.2-.694-7.812-.892-16.802-.297-23.899-2.479-.71-.198-1.656 0-2.366 0-3.549.199-7.097.397-10.646-.297-1.656-.397-3.785-.1-4.731.496-3.076 1.884-6.625 1.487-10.41.495-1.419-.396-2.839-.198-4.495-.297-10.646-.198-21.529.793-32.175-.595-6.624-.892-13.721.198-20.345-.892-1.183-.198-2.603.198-4.022.198-3.785.198-5.678 1.983-8.753 1.983-10.646.198-21.056.496-30.519 2.776-.946.199-2.366.199-3.549.1-5.914-.595-11.592.198-17.27.793-5.914.495-11.829 1.19-17.743.793-3.785-.298-6.624-1.09-11.119-.694-8.517.892-17.27 1.487-25.314 3.073-3.549.694-6.861.893-10.41.794-1.419 0-2.602 0-4.021.099-8.281.595-16.561 2.082-25.314 1.289-1.893-.198-3.312.396-4.968.595-5.205.694-10.646 1.685-16.324.694-3.785-.595-7.334-.793-11.356-.893-14.904-.198-28.862-2.082-42.347-4.56-3.549-.595-6.388-.595-9.7-.199-4.258.496-8.044 1.487-12.302 1.686a99.402 99.402 0 01-19.636-1.09c-1.656-.298-4.022-.794-5.441-.2-4.968 1.785-9.463.794-14.195 0-5.678-1.09-10.882-.495-15.377 1.488-1.656.793-3.786 1.19-6.388 1.19-8.044.198-15.851.892-22.712 2.776-2.129.496-4.495 1.487-7.57.992-7.807-1.19-16.797-.496-24.368-2.28-4.494-1.092-8.28-1.19-13.721-.1-8.517 1.785-17.743 1.19-26.497-.793-4.968-1.19-9.699-2.975-16.324-1.686-.236.1-.946-.099-1.419-.198-4.495-1.388-10.409-1.785-14.904-3.272-9.464-3.272-20.346-4.363-32.412-2.677-.946.099-2.129 0-3.075 0-8.753-.595-18.217.099-26.733-1.388-.474-.1-1.42 0-1.893.099-2.129.793-4.495.496-6.861.396-4.731-.099-9.226-.297-13.958-.396-7.334-.198-13.012 1.685-19.399 2.677-3.312.496-6.624 1.09-9.937.595-8.989-1.19-17.743-2.479-26.496-4.065-3.785-.694-7.807-.199-11.593-.992-10.172-2.181-21.292-2.776-32.884-2.28-7.097.297-14.431.892-21.528-.496-3.076-.595-7.098-1.09-10.646-.892-8.044.495-15.851.991-23.895 1.09-6.624.1-13.248 1.488-19.872 0-3.312-.694-6.388 0-9.227.694-8.517 1.884-17.033 3.47-27.206 3.074-4.495-.1-8.517-.595-12.775-1.09-2.839-.298-5.915-.496-7.334.793-1.893 1.685-4.969 1.784-8.281 1.784-4.021 0-8.043-.099-12.065 0-6.624.298-12.775.298-19.163-.694-4.731-.793-9.463-1.983-14.668-1.586-3.312.198-6.624 0-9.7-.397-6.86-.793-14.43-1.289-20.582-.198-13.485 2.578-28.152 2.479-41.637 4.164-3.312.397-6.624.199-9.7 0V0h1366z" fill="#fff"/></svg>