<svg width="1366" height="533" fill="none" xmlns="http://www.w3.org/2000/svg"><path d="M0 22.501c1.792.358 3.562.762 5.33 1.166 4.068.93 8.126 1.856 12.413 2.209 3.312.337 5.915 1.012 8.517 2.362a32.568 32.568 0 003.856 1.744h15.678c.752-.191 1.5-.389 2.246-.585 4.447-1.172 8.877-2.34 14.18-2.34 8.306 0 17.038-1.52 25.388-2.972l1.345-.234c4.732-.844 8.754-.169 13.012 1.518 6.388 2.531 13.012 2.531 20.346 1.519 2.007-.28 4.025-.646 6.051-1.013 7.762-1.408 15.641-2.838 23.521.507 1.656.675 4.258.675 6.151.168 3.887-.964 7.773-1.067 11.66-1.17 1.555-.041 3.109-.083 4.664-.18 1.937-.125 3.874-.292 5.815-.46 5.881-.507 11.795-1.017 17.843-.383 2.129.169 5.914-.337 6.624-1.35 4.258-5.568 11.119-6.411 18.926-6.917.284-.017.566-.036.846-.054 2.51-.166 4.809-.317 6.724.897 1.657 1.013 3.549 1.35 5.678 1.35 2.721.084 5.442.253 8.162.422 2.721.169 5.442.337 8.162.422 4.495.169 8.517-.675 11.593-3.375 1.419-1.35 3.312-1.687 5.441-2.024 4.968-.675 9.7.168 13.958 2.024 3.075 1.181 5.678 1.181 8.99 1.013 3.903-.338 7.866-.549 11.829-.76 3.962-.21 7.925-.421 11.829-.759 2.84-.264 5.615.115 8.36.49 2.514.344 5.002.684 7.49.523 9.227-.675 18.217-.675 27.207 1.18 2.732.532 5.609.753 8.499.976 5.368.413 10.782.83 15.395 3.243.481.228 1.072.147 1.623.07.262-.035.515-.07.743-.07 3.549-.338 7.097-.675 10.646.506 1.656.675 3.785.168 4.731-.844 3.076-3.206 6.625-2.53 10.41-.843.946.45 1.893.45 2.909.45.508 0 1.034 0 1.586.056 3.544.112 7.115 0 10.694-.112 7.172-.226 14.379-.452 21.481 1.124 3.154.723 6.415.681 9.681.639 3.594-.046 7.194-.093 10.664.88.697.198 1.475.046 2.287-.113.567-.11 1.151-.225 1.735-.225 1.915-.17 3.346-1.032 4.69-1.842 1.313-.791 2.544-1.532 4.063-1.532 10.646-.338 21.056-.844 30.519-4.725.946-.337 2.366-.337 3.549-.168 5.187.887 10.192-.041 15.174-.966.699-.13 1.397-.26 2.096-.384.91-.13 1.82-.268 2.729-.405 5.005-.758 10.01-1.516 15.014-.945 1.157.155 2.225.388 3.28.619 2.395.523 4.718 1.03 7.839.562 1.976-.352 3.965-.677 5.955-1.002 6.586-1.077 13.182-2.155 19.359-4.228 3.549-1.181 6.861-1.519 10.409-1.35 1.42 0 2.603 0 4.022-.169 2.294-.28 4.588-.677 6.892-1.076 6.013-1.04 12.094-2.093 18.422-1.117 1.262.225 2.313-.15 3.365-.525.526-.187 1.051-.375 1.603-.487.604-.137 1.211-.281 1.821-.426 4.649-1.101 9.484-2.247 14.503-.755 3.785 1.012 7.334 1.35 11.356 1.518 14.904.338 28.862 3.543 42.347 7.761 3.549 1.013 6.388 1.013 9.7.338 1.692-.335 3.31-.804 4.912-1.268 2.43-.704 4.824-1.397 7.39-1.6 6.624-.507 13.248.168 19.636 1.855l.356.11c1.625.505 3.765 1.17 5.085.228 4.585-2.803 8.767-1.582 13.104-.316.362.106.726.212 1.091.316 5.678 1.856 10.882.844 15.377-2.531 1.657-1.35 3.786-2.025 6.388-2.025 8.044-.337 15.851-1.518 22.712-4.724.434-.172.878-.38 1.336-.593C810.8.491 812.799-.442 815.247.23c3.376.875 6.973 1.151 10.581 1.428 4.735.364 9.49.729 13.787 2.453 4.494 1.855 8.28 2.024 13.721.168 8.517-3.037 17.743-2.024 26.497 1.35.772.315 1.539.654 2.308.994 4.177 1.849 8.421 3.727 14.016 1.874.191-.136.69.058 1.124.226.104.04.204.08.295.112 2.161 1.135 4.651 1.881 7.152 2.63 2.702.81 5.419 1.624 7.752 2.938 9.464 5.567 20.346 7.423 32.412 4.555.639-.114 1.386-.074 2.095-.036.341.018.673.036.98.036 3.254.376 6.607.45 9.972.523 5.687.124 11.411.25 16.761 1.84.474.168 1.42 0 1.893-.17 1.798-1.14 3.765-.956 5.759-.77.366.035.734.07 1.102.096 2.366.084 4.672.21 6.979.337 2.306.127 4.613.253 6.979.337 5.138.237 9.458-1.263 13.778-2.763 1.85-.643 3.7-1.286 5.62-1.792.28-.07.55-.142.83-.213 3.04-.786 6.07-1.573 9.11-.8 8.99 2.025 17.74 4.219 26.49 6.918 1.82.567 3.69.668 5.57.768 2.03.109 4.06.218 6.03.92 10.17 3.711 21.29 4.724 32.88 3.88.9-.064 1.8-.136 2.71-.209 6.24-.5 12.62-1.01 18.82 1.053 1.23.405 2.61.783 4.06 1.07h10.88c6.55-.676 13-1.27 19.6-1.408 2.05-.052 4.1-.314 6.15-.577 4.57-.585 9.15-1.17 13.72.577 3.31 1.181 6.39 0 9.23-1.18 8.52-3.206 17.03-5.906 27.21-5.231 4.23.159 8.05.917 12.04 1.71l.73.146c2.84.506 5.91.843 7.33-1.35 1.9-2.868 4.97-3.037 8.28-3.037 1.35 0 2.69.019 4.03.038 2.68.037 5.36.075 8.04-.038 6.62-.506 12.78-.506 19.16 1.181.91.259 1.82.542 2.73.826 3.83 1.2 7.73 2.42 11.94 1.874 3.31-.338 6.62 0 9.7.675 6.86 1.35 14.43 2.193 20.58.337 8.05-2.617 16.51-3.613 24.89-4.599 5.67-.667 11.31-1.33 16.75-2.487 3.31-.675 6.62-.338 9.7 0v493.059c-1.79-.358-3.56-.762-5.33-1.166-4.07-.929-8.13-1.856-12.41-2.209-3.32-.337-5.92-1.012-8.52-2.362-4.5-2.362-9.23-3.88-15.38-2.699-2.2.433-4.3.987-6.4 1.54-4.45 1.173-8.88 2.34-14.18 2.34-8.31 0-17.04 1.52-25.39 2.972l-1.34.234c-4.73.844-8.76.169-13.02-1.518-6.38-2.531-13.01-2.531-20.34-1.519-2.01.279-4.03.646-6.05 1.013-7.76 1.409-15.64 2.838-23.52-.507-1.66-.675-4.26-.675-6.15-.168-3.89.964-7.78 1.067-11.66 1.17-1.56.042-3.11.083-4.67.179-1.94.126-3.87.293-5.81.46-5.88.508-11.8 1.018-17.85.384-2.12-.169-5.91.337-6.62 1.35-4.26 5.568-11.12 6.411-18.93 6.917l-.84.054c-2.51.166-4.81.317-6.73-.897-1.65-1.013-3.55-1.35-5.67-1.35-2.73-.084-5.45-.253-8.17-.422-2.72-.169-5.44-.337-8.16-.422-4.49-.168-8.52.675-11.59 3.375-1.42 1.35-3.31 1.687-5.44 2.024-4.97.675-9.7-.168-13.96-2.024-3.08-1.181-5.68-1.181-8.99-1.013-3.9.338-7.87.549-11.83.76-3.96.211-7.92.422-11.83.759-2.84.264-5.61-.115-8.36-.49-2.51-.344-5-.684-7.49-.522-9.22.674-18.21.674-27.2-1.182-2.74-.531-5.61-.752-8.504-.975-5.368-.413-10.782-.83-15.395-3.243-.481-.228-1.072-.147-1.623-.071-.262.036-.515.071-.743.071-3.549.338-7.097.675-10.646-.506-1.656-.675-3.785-.168-4.731.844-3.076 3.206-6.625 2.531-10.41.843-.946-.449-1.893-.449-2.909-.449-.508 0-1.034 0-1.586-.057-3.544-.112-7.115 0-10.694.112-7.172.225-14.379.452-21.481-1.124-3.154-.723-6.415-.681-9.681-.639-3.594.046-7.194.093-10.664-.88-.697-.198-1.475-.046-2.287.113-.567.111-1.151.225-1.735.225-1.915.171-3.346 1.032-4.69 1.842-1.313.791-2.544 1.532-4.063 1.532-10.646.338-21.056.844-30.519 4.725-.946.337-2.366.337-3.549.168-5.187-.888-10.192.041-15.174.966-.699.13-1.397.26-2.096.384-.91.13-1.82.268-2.729.405-5.005.758-10.01 1.516-15.014.945-1.157-.155-2.225-.388-3.28-.619-2.395-.523-4.718-1.031-7.839-.562-1.977.352-3.965.677-5.955 1.002-6.586 1.077-13.182 2.155-19.359 4.228-3.549 1.181-6.861 1.519-10.409 1.35-1.42 0-2.603 0-4.022.169-2.294.28-4.588.677-6.892 1.076-6.013 1.04-12.094 2.093-18.422 1.117-1.262-.225-2.313.15-3.365.525-.526.187-1.051.375-1.603.487-.604.137-1.211.281-1.821.426-4.649 1.101-9.484 2.247-14.503.755-3.785-1.012-7.334-1.349-11.356-1.518-14.904-.338-28.862-3.543-42.347-7.761-3.549-1.013-6.388-1.013-9.7-.338-1.692.336-3.31.804-4.912 1.268-2.43.704-4.824 1.397-7.39 1.601-6.624.506-13.248-.169-19.636-1.856a41.644 41.644 0 00-.356-.11c-1.625-.505-3.765-1.17-5.085-.228-4.585 2.803-8.767 1.582-13.104.316-.362-.106-.726-.212-1.091-.316-5.678-1.856-10.882-.843-15.377 2.531-1.657 1.35-3.786 2.025-6.388 2.025-8.044.337-15.851 1.518-22.712 4.724-.434.172-.878.379-1.336.593-1.787.833-3.786 1.766-6.234 1.094-3.376-.875-6.973-1.151-10.581-1.428-4.735-.364-9.49-.729-13.787-2.453-4.494-1.855-8.28-2.024-13.721-.168-8.517 3.037-17.743 2.024-26.497-1.35a87.174 87.174 0 01-2.308-.994c-4.177-1.849-8.421-3.727-14.016-1.874-.191.136-.69-.058-1.124-.226-.104-.04-.204-.079-.295-.112-2.161-1.135-4.651-1.881-7.152-2.631-2.702-.809-5.419-1.623-7.752-2.937-9.464-5.567-20.346-7.423-32.412-4.555-.639.114-1.386.074-2.095.036-.341-.018-.673-.036-.98-.036-3.254-.376-6.607-.45-9.972-.523-5.687-.124-11.411-.249-16.761-1.839-.474-.169-1.42 0-1.893.169-1.798 1.14-3.765.956-5.759.769a57.07 57.07 0 00-1.102-.095c-2.366-.084-4.672-.211-6.979-.337a355.342 355.342 0 00-6.979-.337c-5.134-.237-9.456 1.263-13.778 2.763-1.853.643-3.705 1.286-5.621 1.792l-.828.213c-3.036.787-6.072 1.573-9.108.799-8.99-2.024-17.744-4.218-26.497-6.917-1.818-.567-3.69-.668-5.564-.768-2.029-.109-4.061-.218-6.029-.92-10.172-3.711-21.292-4.724-32.884-3.88-.9.064-1.803.136-2.71.209-6.243.5-12.621 1.01-18.818-1.053-3.076-1.012-7.098-1.856-10.646-1.518l-.827.086c-7.753.814-15.3 1.607-23.068 1.77-2.05.052-4.1.314-6.151.577-4.574.585-9.147 1.17-13.721-.577-3.312-1.181-6.388 0-9.227 1.181-8.517 3.205-17.033 5.905-27.206 5.23-4.236-.159-8.052-.917-12.041-1.71l-.734-.146c-2.839-.506-5.915-.843-7.334 1.35-1.893 2.868-4.968 3.037-8.281 3.037-1.34 0-2.681-.019-4.021-.037-2.682-.038-5.363-.076-8.044.037-6.624.506-12.775.506-19.163-1.181-.906-.259-1.813-.542-2.723-.827-3.839-1.2-7.737-2.418-11.945-1.873-3.312.338-6.624 0-9.7-.675-6.86-1.349-14.43-2.193-20.582-.337-8.043 2.617-16.507 3.612-24.89 4.599-5.671.667-11.306 1.33-16.747 2.487-3.312.675-6.624.338-9.7 0V22.501z" fill="#FFCB66"/></svg>