<svg width="210" height="80" fill="none" xmlns="http://www.w3.org/2000/svg"><path opacity=".2" d="M39.912 79.957c21.983 0 39.804-17.87 39.804-39.914S61.896.129 39.912.129C17.93.129.108 17.999.108 40.043s17.82 39.914 39.804 39.914z" fill="#242A30"/><path d="M64.79 21.806v-4.645c0-2.58-2.059-4.817-4.804-4.817-1.373 0-2.574.516-3.431 1.548-4.976-3.268-10.81-4.817-16.643-4.817s-11.666 1.72-16.642 4.817c-.858-1.032-2.23-1.548-3.431-1.548-2.574 0-4.804 2.065-4.804 4.645v4.645c-3.775 5.334-6.005 11.7-6.005 18.237 0 17.032 13.897 30.968 30.882 30.968 16.986 0 30.883-13.936 30.883-30.968 0-6.366-2.23-12.731-6.005-18.065zm-.172 30.796c0 3.785-3.088 7.054-7.034 7.054H44.888l3.774-9.462h3.603c1.373-.345 2.574-1.549 2.917-2.925v-9.463c-.343-1.72-1.887-2.924-3.775-3.096H47.29c-2.06 0-3.775 1.72-3.775 3.957h-.171V49.16h-7.378V37.806c-.343-1.72-1.887-2.924-3.775-3.096h-4.117c-2.059 0-3.775 1.72-3.775 3.957h-.171v7.741h.171c0 1.72 1.201 3.441 2.917 3.785h3.26l3.603 9.463H21.726c-3.775 0-7.034-3.097-7.034-7.054v-27.01l9.436-5.162H55.01l9.265 5.161.343 27.011z" fill="#242A30"/><path d="M24.47 20.43l-9.435 5.161v27.01c0 3.786 3.088 7.055 7.034 7.055h12.353l-3.603-9.463h-3.26c-1.716-.516-2.917-2.064-2.917-3.785h-.171v-7.742h.171c0-2.064 1.716-3.957 3.775-3.957h4.118c1.716 0 3.26 1.377 3.774 3.097v11.355h7.378V38.666h.171c0-2.064 1.716-3.957 3.775-3.957h4.117c1.716 0 3.26 1.377 3.775 3.097v9.463c-.343 1.376-1.372 2.58-2.917 2.924h-3.602l-3.775 9.463h12.696c3.775 0 7.034-3.097 7.034-7.054V25.419l-9.264-5.161H24.47v.172z" fill="#F6F6F6"/><path d="M91.04 60.344V46.408h6.863c-.172 2.065.686 4.13 2.058 5.678 1.202 1.204 2.574 1.72 4.29 1.72 1.201 0 2.402-.344 3.088-1.204.858-.86 1.201-1.892 1.201-3.097 0-1.204-.343-2.408-1.201-3.097-1.372-1.204-2.917-2.236-4.461-2.924-3.603-1.549-6.691-3.441-9.608-6.022-1.715-1.892-2.745-4.473-2.573-7.054-.172-3.096 1.03-6.193 3.26-8.258 2.058-1.892 4.804-2.924 7.549-2.924 2.916-.172 5.833 1.376 7.549 3.785V19.57h6.863v12.387h-6.863c-.172-1.72-.858-3.269-2.059-4.473a5.316 5.316 0 00-3.775-1.549 4.65 4.65 0 00-2.916 1.033 3.012 3.012 0 00-1.201 2.408c0 .86.343 1.72 1.029 2.409a18.214 18.214 0 005.662 3.097c2.402 1.032 4.632 2.236 6.863 3.613 1.544 1.032 2.916 2.58 3.774 4.3 1.03 1.893 1.373 3.958 1.373 6.022.171 3.44-1.03 6.71-3.432 9.118-2.23 2.065-5.147 3.097-8.235 3.097-3.26.172-6.348-1.204-8.235-3.957v3.441H91.21l-.171-.172zM119.349 60.344v-6.71h4.804v-27.01h-4.804v-6.882h35.858v12.903h-7.892v-6.022H134.79v9.463h10.123v6.882H134.79v10.666h12.525v-6.193h7.892v12.903h-35.858zM209.252 26.451V19.57h-17.844l-7.72 23.914-7.892-23.914h-17.672v6.881h3.774v27.011h-3.774v6.71h14.926v-6.71h-3.774v-27.01l11.152 33.892h6.52l10.98-33.893h.172v27.011h-3.775v6.71h14.927v-6.71h-3.775v-27.01h3.775z" fill="#242A30"/></svg>