<svg width="1366" height="482" fill="none" xmlns="http://www.w3.org/2000/svg"><path fill-rule="evenodd" clip-rule="evenodd" d="M5.33 23.681c-1.768-.404-3.538-.808-5.33-1.166v450.162c1.792.361 3.562.768 5.33 1.175 4.068.936 8.126 1.87 12.413 2.226 3.312.34 5.915 1.02 8.517 2.381 4.495 2.38 9.227 3.911 15.378 2.72 2.2-.436 4.302-.995 6.401-1.552l.002-.001c4.446-1.181 8.876-2.358 14.18-2.358 8.305 0 17.037-1.531 25.386-2.995h.001l.82-.143.525-.092c4.732-.851 8.754-.171 13.012 1.53 6.388 2.55 13.012 2.55 20.346 1.53 2.007-.281 4.025-.65 6.051-1.021 7.762-1.419 15.641-2.86 23.521.511 1.656.68 4.258.68 6.151.17 3.887-.971 7.773-1.076 11.66-1.18h.002c1.554-.041 3.108-.083 4.662-.18 1.937-.127 3.873-.295 5.814-.464h.001c5.881-.511 11.795-1.026 17.843-.386 2.129.17 5.914-.34 6.624-1.361 4.258-5.611 11.119-6.461 18.926-6.971.283-.017.563-.036.841-.054l.005-.001c2.51-.166 4.809-.319 6.724.905 1.657 1.02 3.549 1.36 5.678 1.36 2.721.085 5.442.255 8.162.425 2.721.17 5.442.34 8.162.425 4.495.17 8.517-.68 11.593-3.4 1.419-1.361 3.312-1.701 5.441-2.041 4.968-.68 9.7.17 13.958 2.041 3.075 1.19 5.678 1.19 8.99 1.02 3.903-.34 7.866-.553 11.829-.765 3.962-.213 7.925-.426 11.829-.766 2.839-.266 5.615.116 8.359.494h.001c2.514.347 5.002.689 7.49.527 9.227-.681 18.217-.681 27.207 1.19 2.732.536 5.609.759 8.499.983 5.368.416 10.782.836 15.395 3.268.481.231 1.072.148 1.623.072.262-.037.515-.072.743-.072 3.549-.34 7.097-.68 10.646.51 1.656.68 3.785.17 4.731-.85 3.076-3.231 6.625-2.551 10.41-.85.946.453 1.893.453 2.909.453.508 0 1.034 0 1.586.057 3.544.113 7.115 0 10.694-.113 7.172-.227 14.379-.455 21.481 1.133 3.154.729 6.415.686 9.681.644 3.594-.047 7.194-.093 10.664.886.697.201 1.475.047 2.287-.113.567-.112 1.151-.227 1.735-.227 1.915-.172 3.346-1.04 4.69-1.856 1.313-.797 2.544-1.544 4.063-1.544 10.646-.341 21.056-.851 30.519-4.762.946-.34 2.366-.34 3.549-.17 5.187.895 10.192-.041 15.174-.973.699-.131 1.397-.262 2.096-.387.91-.131 1.82-.27 2.729-.408 5.005-.764 10.01-1.528 15.014-.952 1.157.156 2.225.391 3.279.623h.001c2.395.528 4.718 1.039 7.839.567 1.976-.355 3.965-.683 5.955-1.011 6.586-1.084 13.182-2.171 19.359-4.26 3.549-1.191 6.861-1.531 10.409-1.361 1.42 0 2.603 0 4.022-.17 2.293-.282 4.586-.682 6.89-1.084h.002c6.013-1.049 12.094-2.11 18.422-1.126 1.262.226 2.313-.151 3.365-.529.526-.189 1.051-.378 1.603-.492.601-.137 1.206-.281 1.813-.426l.008-.002c4.649-1.111 9.484-2.265 14.503-.762 3.785 1.02 7.334 1.361 11.356 1.531 14.904.34 28.862 3.57 42.347 7.822 3.549 1.02 6.388 1.02 9.7.34 1.692-.338 3.31-.811 4.912-1.278h.001c2.429-.709 4.823-1.408 7.389-1.613 6.624-.51 13.248.17 19.636 1.87l.356.111c1.625.509 3.765 1.179 5.085.229 4.585-2.824 8.767-1.594 13.104-.318l.414.121c.225.067.451.132.677.197 5.678 1.871 10.882.851 15.377-2.55 1.657-1.361 3.786-2.041 6.388-2.041 8.044-.34 15.851-1.53 22.712-4.761.434-.173.878-.382 1.336-.597 1.787-.841 3.786-1.78 6.234-1.103 3.376.882 6.973 1.16 10.581 1.439 4.735.367 9.49.734 13.787 2.472 4.494 1.87 8.28 2.04 13.721.17 8.517-3.061 17.743-2.041 26.497 1.36.772.317 1.539.659 2.308 1.002 4.177 1.863 8.421 3.756 14.016 1.889.191-.138.69.058 1.124.228.104.04.204.079.295.112 2.161 1.144 4.651 1.896 7.152 2.651 2.702.816 5.419 1.636 7.752 2.96 9.464 5.612 20.346 7.482 32.412 4.591.639-.114 1.386-.074 2.095-.036.207.011.41.022.607.029.127.005.252.007.373.007 3.254.38 6.606.453 9.972.527 5.687.126 11.411.252 16.761 1.854.474.17 1.42 0 1.893-.17 1.798-1.149 3.765-.964 5.759-.776l.004.001c.366.034.732.068 1.098.095 2.366.085 4.672.212 6.979.34 2.307.127 4.613.255 6.979.34 5.138.238 9.458-1.274 13.778-2.785 1.85-.648 3.7-1.296 5.62-1.806l.36-.094c.16-.04.31-.081.47-.121 3.04-.792 6.07-1.585 9.11-.805 8.99 2.04 17.74 4.251 26.49 6.971 1.82.572 3.69.673 5.57.774 2.03.11 4.06.219 6.03.927 10.17 3.741 21.29 4.761 32.88 3.911.9-.065 1.8-.138 2.71-.211 6.24-.504 12.62-1.018 18.82 1.061 3.07 1.02 7.1 1.87 10.65 1.53l.82-.087c7.75-.821 15.3-1.619 23.07-1.783 2.05-.053 4.1-.317 6.15-.582 4.57-.59 9.15-1.179 13.72.582 3.31 1.19 6.39 0 9.23-1.191 8.52-3.23 17.03-5.951 27.21-5.271 4.23.16 8.05.925 12.04 1.724l.73.147c2.84.51 5.91.85 7.33-1.361 1.9-2.89 4.97-3.06 8.28-3.06.55 0 1.1.003 1.65.008.79.007 1.58.018 2.38.029 2.68.038 5.36.076 8.04-.037 6.62-.511 12.78-.511 19.16 1.19.91.26 1.82.546 2.73.833 3.83 1.209 7.73 2.437 11.94 1.888 3.31-.341 6.62 0 9.7.68 6.86 1.36 14.43 2.21 20.58.34 8.05-2.637 16.51-3.641 24.89-4.635 5.67-.672 11.31-1.34 16.75-2.507 3.31-.68 6.62-.34 9.7 0V17.45c-3.08-.338-6.39-.675-9.7 0-5.44 1.158-11.08 1.822-16.75 2.49-8.38.986-16.84 1.982-24.89 4.6-6.15 1.858-13.72 1.014-20.58-.337-3.08-.675-6.39-1.013-9.7-.675-4.21.546-8.11-.674-11.94-1.875-.91-.284-1.82-.568-2.73-.826-6.38-1.689-12.54-1.689-19.16-1.182-2.68.112-5.36.075-8.04.037-1.34-.018-2.68-.037-4.03-.037-3.31 0-6.38.169-8.28 3.038-1.42 2.195-4.49 1.858-7.33 1.351l-.73-.146c-3.99-.793-7.81-1.552-12.04-1.711-10.18-.675-18.69 2.026-27.21 5.234-2.84 1.181-5.92 2.363-9.23 1.181-4.57-1.748-9.15-1.163-13.72-.577-2.05.262-4.1.525-6.15.577-6.6.139-13.05.733-19.6 1.408h-10.88a34.331 34.331 0 01-4.06-1.07c-6.2-2.064-12.58-1.553-18.82-1.053-.91.072-1.81.145-2.71.209-11.59.844-22.71-.169-32.88-3.883-1.97-.702-4-.811-6.03-.92-1.88-.1-3.75-.2-5.57-.768-8.75-2.701-17.5-4.896-26.49-6.922-3.04-.774-6.07.013-9.11.8l-.83.213c-1.92.506-3.77 1.15-5.62 1.793-4.32 1.5-8.64 3.001-13.778 2.765a360.423 360.423 0 01-6.979-.338c-2.307-.126-4.613-.253-6.979-.337-.368-.026-.736-.06-1.102-.095-1.994-.187-3.961-.37-5.759.77-.473.169-1.419.338-1.893.169-5.35-1.591-11.074-1.716-16.761-1.84-3.365-.074-6.718-.147-9.972-.524-.307 0-.639-.017-.98-.036-.709-.038-1.456-.078-2.095.036-12.066 2.87-22.948 1.013-32.412-4.558-2.333-1.315-5.05-2.129-7.752-2.939-2.501-.75-4.991-1.496-7.152-2.632-.091-.032-.191-.071-.295-.111-.434-.169-.933-.363-1.124-.227-5.595 1.854-9.839-.025-14.016-1.875a85.61 85.61 0 00-2.308-.995c-8.754-3.376-17.98-4.389-26.497-1.35-5.441 1.857-9.227 1.688-13.721-.169-4.297-1.725-9.052-2.09-13.787-2.454-3.608-.277-7.205-.553-10.581-1.429-2.448-.672-4.447.26-6.234 1.095-.458.214-.902.421-1.336.593-6.861 3.208-14.668 4.39-22.712 4.727-2.602 0-4.731.676-6.388 2.026-4.495 3.377-9.699 4.39-15.377 2.533-.365-.105-.729-.21-1.091-.317-4.337-1.266-8.519-2.488-13.104.316-1.32.943-3.46.278-5.085-.227l-.356-.11c-6.388-1.688-13.012-2.364-19.636-1.857-2.566.203-4.96.897-7.39 1.601-1.602.465-3.22.933-4.912 1.269-3.312.675-6.151.675-9.7-.338-13.485-4.22-27.443-7.428-42.347-7.766-4.022-.168-7.571-.506-11.356-1.52-5.019-1.491-9.854-.345-14.503.757-.61.145-1.217.289-1.821.426-.552.112-1.077.3-1.603.487-1.052.376-2.103.75-3.365.526-6.328-.977-12.409.076-18.422 1.117-2.304.4-4.598.797-6.892 1.077-1.419.17-2.602.17-4.022.17-3.548-.17-6.86.168-10.409 1.35-6.177 2.074-12.773 3.153-19.359 4.23-1.99.325-3.979.65-5.955 1.003-3.121.47-5.444-.039-7.839-.563-1.055-.23-2.123-.464-3.28-.619-5.004-.57-10.009.187-15.014.946-.909.137-1.819.275-2.729.405-.699.125-1.397.254-2.096.384-4.982.925-9.987 1.855-15.174.967-1.183-.17-2.603-.17-3.549.168-9.463 3.883-19.873 4.39-30.519 4.728-1.519 0-2.75.741-4.063 1.533-1.344.81-2.775 1.672-4.69 1.843-.584 0-1.168.114-1.735.225-.812.16-1.59.311-2.287.113-3.47-.973-7.07-.927-10.664-.88-3.266.042-6.527.084-9.681-.64-7.102-1.576-14.309-1.35-21.481-1.125-3.579.113-7.15.225-10.694.112-.552-.056-1.078-.056-1.586-.056-1.016 0-1.963 0-2.909-.45-3.785-1.689-7.334-2.364-10.41.844-.946 1.013-3.075 1.52-4.731.844-3.549-1.182-7.097-.844-10.646-.506-.228 0-.481.035-.743.07-.551.077-1.142.159-1.623-.07-4.613-2.415-10.027-2.832-15.395-3.245-2.89-.223-5.767-.444-8.499-.976-8.99-1.857-17.98-1.857-27.207-1.182-2.488.162-4.976-.179-7.49-.522-2.745-.376-5.52-.755-8.36-.49-3.904.337-7.867.548-11.829.759-3.963.211-7.926.422-11.829.76-3.312.169-5.915.169-8.99-1.013-4.258-1.857-8.99-2.701-13.958-2.026-2.129.337-4.022.675-5.441 2.026-3.076 2.7-7.098 3.545-11.593 3.376-2.72-.084-5.441-.253-8.162-.422-2.72-.169-5.441-.338-8.162-.422-2.129 0-4.021-.338-5.678-1.35-1.915-1.216-4.214-1.064-6.724-.899-.28.019-.562.037-.846.054-7.807.507-14.668 1.35-18.926 6.922-.71 1.013-4.495 1.52-6.624 1.35-6.048-.634-11.962-.123-17.843.384-1.941.168-3.878.335-5.815.46-1.555.097-3.109.139-4.664.18-3.887.103-7.773.207-11.66 1.171-1.893.507-4.495.507-6.151-.168-7.88-3.347-15.759-1.917-23.521-.508-2.026.368-4.044.735-6.051 1.014-7.334 1.013-13.958 1.013-20.346-1.52-4.258-1.688-8.28-2.363-13.012-1.519a861.513 861.513 0 00-1.345.234c-8.35 1.454-17.082 2.974-25.388 2.974-5.303 0-9.733 1.168-14.18 2.341-.747.197-1.494.394-2.246.586H30.116a32.558 32.558 0 01-3.856-1.745c-2.602-1.351-5.205-2.026-8.517-2.364-4.287-.353-8.345-1.28-12.414-2.21z" fill="#FFCB66"/></svg>