<svg width="126" height="123" fill="none" xmlns="http://www.w3.org/2000/svg"><g filter="url(#filter0_d)"><circle cx="63" cy="58" r="40" fill="#fff"/><path d="M63 16c-23.712 0-43 18.617-43 41.5S39.288 99 63 99s43-18.617 43-41.5S86.712 16 63 16zm17.094 42.954L55.011 74.516a1.848 1.848 0 01-1.827.064 1.719 1.719 0 01-.934-1.517V41.936c0-.633.357-1.214.934-1.518a1.843 1.843 0 011.827.065l25.083 15.562c.511.318.823.866.823 1.454s-.312 1.136-.823 1.454z" fill="#FFA800"/></g><defs><filter id="filter0_d" x="0" y="0" width="126" height="123" filterUnits="userSpaceOnUse" color-interpolation-filters="sRGB"><feFlood flood-opacity="0" result="BackgroundImageFix"/><feColorMatrix in="SourceAlpha" values="0 0 0 0 0 0 0 0 0 0 0 0 0 0 0 0 0 0 127 0"/><feOffset dy="4"/><feGaussianBlur stdDeviation="10"/><feColorMatrix values="0 0 0 0 0 0 0 0 0 0 0 0 0 0 0 0 0 0 0.25 0"/><feBlend in2="BackgroundImageFix" result="effect1_dropShadow"/><feBlend in="SourceGraphic" in2="effect1_dropShadow" result="shape"/></filter></defs></svg>